{
    "asset" : {
        "generator" : "Khronos glTF Blender I/O v1.5.17",
        "version" : "2.0"
    },
    "scene" : 0,
    "scenes" : [
        {
            "name" : "Scene",
            "nodes" : [
                0,
                4,
                5,
                6
            ]
        }
    ],
    "nodes" : [
        {
            "name" : "Camera",
            "rotation" : [
                0.483536034822464,
                0.33687159419059753,
                -0.20870360732078552,
                0.7804827094078064
            ],
            "translation" : [
                11.503192901611328,
                7.986618995666504,
                12.023958206176758
            ]
        },
        {
            "mesh" : 0,
            "name" : "Cylinder",
            "rotation" : [
                0,
                0,
                -0.7071068286895752,
                0.7071068286895752
            ]
        },
        {
            "mesh" : 1,
            "name" : "Cylinder.001",
            "rotation" : [
                0,
                0,
                -0.7071068286895752,
                0.7071068286895752
            ],
            "translation" : [
                -0.9206214547157288,
                0,
                0
            ]
        },
        {
            "mesh" : 2,
            "name" : "Cylinder.002",
            "rotation" : [
                0,
                0,
                -0.7071068286895752,
                0.7071068286895752
            ],
            "translation" : [
                0.9530131816864014,
                0,
                0
            ]
        },
        {
            "children" : [
                1,
                2,
                3
            ],
            "mesh" : 3,
            "name" : "Sphere",
            "rotation" : [
                0,
                0,
                -0.15643447637557983,
                0.9876883625984192
            ]
        },
        {
            "mesh" : 4,
            "name" : "Sphere.001"
        },
        {
            "name" : "Sun",
            "translation" : [
                -16.613277435302734,
                11.801311492919922,
                -2.258863925933838
            ]
        }
    ],
    "materials" : [
        {
            "doubleSided" : true,
            "name" : "Material.001",
            "pbrMetallicRoughness" : {
                "baseColorFactor" : [
                    0.18446935713291168,
                    0.18446935713291168,
                    0.18446935713291168,
                    1
                ],
                "metallicFactor" : 0,
                "roughnessFactor" : 0.5
            }
        },
        {
            "doubleSided" : true,
            "name" : "bordstein",
            "pbrMetallicRoughness" : {
                "baseColorFactor" : [
                    0.4200245141983032,
                    0.4200245141983032,
                    0.4200245141983032,
                    1
                ],
                "metallicFactor" : 0,
                "roughnessFactor" : 0.5
            }
        },
        {
            "doubleSided" : true,
            "name" : "erde",
            "pbrMetallicRoughness" : {
                "baseColorFactor" : [
                    0.3088732659816742,
                    0.8000000715255737,
                    0.1621723771095276,
                    1
                ],
                "metallicFactor" : 0,
                "roughnessFactor" : 0.5
            }
        },
        {
            "doubleSided" : true,
            "name" : "mountainbase",
            "pbrMetallicRoughness" : {
                "baseColorFactor" : [
                    0.5277191400527954,
                    0.18886691331863403,
                    0.07046050578355789,
                    1
                ],
                "metallicFactor" : 0,
                "roughnessFactor" : 0.5
            }
        },
        {
            "doubleSided" : true,
            "name" : "mountaintop",
            "pbrMetallicRoughness" : {
                "metallicFactor" : 0,
                "roughnessFactor" : 0.5
            }
        },
        {
            "doubleSided" : true,
            "name" : "Material.002",
            "pbrMetallicRoughness" : {
                "baseColorFactor" : [
                    0.06086635962128639,
                    0.32508376240730286,
                    0.8000000715255737,
                    1
                ],
                "metallicFactor" : 0,
                "roughnessFactor" : 0.5
            }
        },
        {
            "doubleSided" : true,
            "name" : "ice",
            "pbrMetallicRoughness" : {
                "metallicFactor" : 0,
                "roughnessFactor" : 0.5
            }
        }
    ],
    "meshes" : [
        {
            "name" : "Cylinder",
            "primitives" : [
                {
                    "attributes" : {
                        "POSITION" : 0,
                        "NORMAL" : 1
                    },
                    "indices" : 2,
                    "material" : 0
                }
            ]
        },
        {
            "name" : "Cylinder.001",
            "primitives" : [
                {
                    "attributes" : {
                        "POSITION" : 3,
                        "NORMAL" : 4
                    },
                    "indices" : 2,
                    "material" : 1
                }
            ]
        },
        {
            "name" : "Cylinder.002",
            "primitives" : [
                {
                    "attributes" : {
                        "POSITION" : 5,
                        "NORMAL" : 6
                    },
                    "indices" : 2,
                    "material" : 1
                }
            ]
        },
        {
            "name" : "Sphere.001",
            "primitives" : [
                {
                    "attributes" : {
                        "POSITION" : 7,
                        "NORMAL" : 8
                    },
                    "indices" : 9,
                    "material" : 2
                },
                {
                    "attributes" : {
                        "POSITION" : 10,
                        "NORMAL" : 11
                    },
                    "indices" : 12,
                    "material" : 3
                },
                {
                    "attributes" : {
                        "POSITION" : 13,
                        "NORMAL" : 14
                    },
                    "indices" : 15,
                    "material" : 4
                }
            ]
        },
        {
            "name" : "Sphere.002",
            "primitives" : [
                {
                    "attributes" : {
                        "POSITION" : 16,
                        "NORMAL" : 17
                    },
                    "indices" : 18,
                    "material" : 5
                },
                {
                    "attributes" : {
                        "POSITION" : 19,
                        "NORMAL" : 20
                    },
                    "indices" : 21,
                    "material" : 6
                }
            ]
        }
    ],
    "accessors" : [
        {
            "bufferView" : 0,
            "componentType" : 5126,
            "count" : 384,
            "max" : [
                10.100000381469727,
                1.0950002670288086,
                10.100000381469727
            ],
            "min" : [
                -10.100000381469727,
                -1.0950002670288086,
                -10.100000381469727
            ],
            "type" : "VEC3"
        },
        {
            "bufferView" : 1,
            "componentType" : 5126,
            "count" : 384,
            "type" : "VEC3"
        },
        {
            "bufferView" : 2,
            "componentType" : 5123,
            "count" : 756,
            "type" : "SCALAR"
        },
        {
            "bufferView" : 3,
            "componentType" : 5126,
            "count" : 384,
            "max" : [
                10.160000801086426,
                0.18500036001205444,
                10.160000801086426
            ],
            "min" : [
                -10.160000801086426,
                -0.18500036001205444,
                -10.160000801086426
            ],
            "type" : "VEC3"
        },
        {
            "bufferView" : 4,
            "componentType" : 5126,
            "count" : 384,
            "type" : "VEC3"
        },
        {
            "bufferView" : 5,
            "componentType" : 5126,
            "count" : 384,
            "max" : [
                10.160000801086426,
                0.18500036001205444,
                10.160000801086426
            ],
            "min" : [
                -10.160000801086426,
                -0.18500036001205444,
                -10.160000801086426
            ],
            "type" : "VEC3"
        },
        {
            "bufferView" : 6,
            "componentType" : 5126,
            "count" : 384,
            "type" : "VEC3"
        },
        {
            "bufferView" : 7,
            "componentType" : 5126,
            "count" : 12236,
            "max" : [
                10.23869514465332,
                10.019999504089355,
                10.020010948181152
            ],
            "min" : [
                -9.755350112915039,
                -10.019999504089355,
                -10.019975662231445
            ],
            "type" : "VEC3"
        },
        {
            "bufferView" : 8,
            "componentType" : 5126,
            "count" : 12236,
            "type" : "VEC3"
        },
        {
            "bufferView" : 9,
            "componentType" : 5123,
            "count" : 18126,
            "type" : "SCALAR"
        },
        {
            "bufferView" : 10,
            "componentType" : 5126,
            "count" : 336,
            "max" : [
                -2.310325860977173,
                6.277894496917725,
                10.069611549377441
            ],
            "min" : [
                -10.043761253356934,
                -4.33729362487793,
                3.658050060272217
            ],
            "type" : "VEC3"
        },
        {
            "bufferView" : 11,
            "componentType" : 5126,
            "count" : 336,
            "type" : "VEC3"
        },
        {
            "bufferView" : 12,
            "componentType" : 5123,
            "count" : 504,
            "type" : "SCALAR"
        },
        {
            "bufferView" : 13,
            "componentType" : 5126,
            "count" : 76,
            "max" : [
                -2.943491220474243,
                9.529585838317871,
                10.069611549377441
            ],
            "min" : [
                -10.90492057800293,
                -1.540991187095642,
                -1.2300714254379272
            ],
            "type" : "VEC3"
        },
        {
            "bufferView" : 14,
            "componentType" : 5126,
            "count" : 76,
            "type" : "VEC3"
        },
        {
            "bufferView" : 15,
            "componentType" : 5123,
            "count" : 114,
            "type" : "SCALAR"
        },
        {
            "bufferView" : 16,
            "componentType" : 5126,
            "count" : 14772,
            "max" : [
                9.840007781982422,
                10.911580085754395,
                9.840017318725586
            ],
            "min" : [
                -9.840002059936523,
                -9.839998245239258,
                -9.839998245239258
            ],
            "type" : "VEC3"
        },
        {
            "bufferView" : 17,
            "componentType" : 5126,
            "count" : 14772,
            "type" : "VEC3"
        },
        {
            "bufferView" : 18,
            "componentType" : 5123,
            "count" : 23235,
            "type" : "SCALAR"
        },
        {
            "bufferView" : 19,
            "componentType" : 5126,
            "count" : 8059,
            "max" : [
                7.751339912414551,
                11.433747291564941,
                4.750039100646973
            ],
            "min" : [
                -5.125541687011719,
                5.141383647918701,
                -5.1255292892456055
            ],
            "type" : "VEC3"
        },
        {
            "bufferView" : 20,
            "componentType" : 5126,
            "count" : 8059,
            "type" : "VEC3"
        },
        {
            "bufferView" : 21,
            "componentType" : 5123,
            "count" : 12027,
            "type" : "SCALAR"
        }
    ],
    "bufferViews" : [
        {
            "buffer" : 0,
            "byteLength" : 4608,
            "byteOffset" : 0
        },
        {
            "buffer" : 0,
            "byteLength" : 4608,
            "byteOffset" : 4608
        },
        {
            "buffer" : 0,
            "byteLength" : 1512,
            "byteOffset" : 9216
        },
        {
            "buffer" : 0,
            "byteLength" : 4608,
            "byteOffset" : 10728
        },
        {
            "buffer" : 0,
            "byteLength" : 4608,
            "byteOffset" : 15336
        },
        {
            "buffer" : 0,
            "byteLength" : 4608,
            "byteOffset" : 19944
        },
        {
            "buffer" : 0,
            "byteLength" : 4608,
            "byteOffset" : 24552
        },
        {
            "buffer" : 0,
            "byteLength" : 146832,
            "byteOffset" : 29160
        },
        {
            "buffer" : 0,
            "byteLength" : 146832,
            "byteOffset" : 175992
        },
        {
            "buffer" : 0,
            "byteLength" : 36252,
            "byteOffset" : 322824
        },
        {
            "buffer" : 0,
            "byteLength" : 4032,
            "byteOffset" : 359076
        },
        {
            "buffer" : 0,
            "byteLength" : 4032,
            "byteOffset" : 363108
        },
        {
            "buffer" : 0,
            "byteLength" : 1008,
            "byteOffset" : 367140
        },
        {
            "buffer" : 0,
            "byteLength" : 912,
            "byteOffset" : 368148
        },
        {
            "buffer" : 0,
            "byteLength" : 912,
            "byteOffset" : 369060
        },
        {
            "buffer" : 0,
            "byteLength" : 228,
            "byteOffset" : 369972
        },
        {
            "buffer" : 0,
            "byteLength" : 177264,
            "byteOffset" : 370200
        },
        {
            "buffer" : 0,
            "byteLength" : 177264,
            "byteOffset" : 547464
        },
        {
            "buffer" : 0,
            "byteLength" : 46470,
            "byteOffset" : 724728
        },
        {
            "buffer" : 0,
            "byteLength" : 96708,
            "byteOffset" : 771200
        },
        {
            "buffer" : 0,
            "byteLength" : 96708,
            "byteOffset" : 867908
        },
        {
            "buffer" : 0,
            "byteLength" : 24054,
            "byteOffset" : 964616
        }
    ],
    "buffers" : [
        {
            "byteLength" : 988672,
            "uri" : "data:application/octet-stream;base64,"
        }
    ]
}
